<svg xmlns="http://www.w3.org/2000/svg" xmlns:xlink="http://www.w3.org/1999/xlink" width="470" height="468" id="camera"><defs><filter id="a" width="111.8%" height="111.9%" x="-5.9%" y="-3.9%" filterUnits="objectBoundingBox"><feOffset dy="5" in="SourceAlpha" result="shadowOffsetOuter1"></feOffset><feGaussianBlur in="shadowOffsetOuter1" result="shadowBlurOuter1" stdDeviation="4"></feGaussianBlur><feColorMatrix in="shadowBlurOuter1" result="shadowMatrixOuter1" values="0 0 0 0 0 0 0 0 0 0 0 0 0 0 0 0 0 0 0.078125 0"></feColorMatrix><feOffset dy="4" in="SourceAlpha" result="shadowOffsetOuter2"></feOffset><feGaussianBlur in="shadowOffsetOuter2" result="shadowBlurOuter2" stdDeviation="5.5"></feGaussianBlur><feColorMatrix in="shadowBlurOuter2" result="shadowMatrixOuter2" values="0 0 0 0 0 0 0 0 0 0 0 0 0 0 0 0 0 0 0.210824275 0"></feColorMatrix><feMerge><feMergeNode in="shadowMatrixOuter1"></feMergeNode><feMergeNode in="shadowMatrixOuter2"></feMergeNode></feMerge></filter><path id="b" d="M9.635 132.808C24.782 59.782 71.388 19.109 144.085 6.822c53.74-9.081 107.5-9.196 161.15.255 74.852 13.185 119.85 56.23 134.185 130.36 11.075 57.29 11.249 115.191-.174 172.427-15.324 72.52-63.132 117.285-135.561 129.527-53.74 9.08-107.5 9.195-161.15-.255-74.852-13.186-120.05-58.38-134.384-132.509-11.64-57.668-10.52-115.935 1.484-173.82z"></path></defs><g fill="none" fill-rule="evenodd"><g transform="translate(11 7)"><use fill="#000" filter="url(#a)" xlink:href="#b"></use><use fill="#A1ACD1" xlink:href="#b"></use></g><path fill="#FFF" d="M269 229.656c0 18.962-15.371 34.334-34.333 34.334-18.962 0-34.334-15.372-34.334-34.334 0-18.961 15.372-34.333 34.334-34.333 18.962 0 34.333 15.372 34.333 34.333m-86.333 0c0-28.72 23.281-52 52-52s52 23.28 52 52c0 28.719-23.281 52-52 52s-52-23.281-52-52zM343 195.164h17.333v91.578c0 21.492-17.422 38.914-38.914 38.914H155.652v-17.333h162.656c13.637 0 24.692-11.055 24.692-24.693v-88.466zm-152.147-40.285a17.535 17.535 0 0 1-12.828 5.633l-51.692.144v165H109V162.358c0-10.513 8.523-19.035 19.037-19.035h49.895l21.788-23.997a13.192 13.192 0 0 1 9.794-4.325l53.11.098a13.198 13.198 0 0 1 9.665 4.238l22.173 23.986h65.871v17.333l-66.029-.205a17.535 17.535 0 0 1-12.82-5.633l-20.793-22.495h-48.988l-20.849 22.556z"></path></g></svg>